<svg width="360" height="353" viewBox="0 0 360 353" fill="none" xmlns="http://www.w3.org/2000/svg"><g clip-path="url(#clip0_6071_141465)"><path d="M350.539 4.026h-133.54a9.46 9.46 0 00-9.461 9.46v325.197a9.46 9.46 0 009.461 9.461h133.54a9.461 9.461 0 009.461-9.461V13.487a9.461 9.461 0 00-9.461-9.461z" fill="#EAE6ED"/><path d="M342.97 12.32H229.378a8.655 8.655 0 00-8.655 8.655v318.513a8.656 8.656 0 008.655 8.656H342.97a8.656 8.656 0 008.656-8.656V20.975a8.656 8.656 0 00-8.656-8.656z" fill="#DCDAE0"/><path d="M154.999 104.413s-17.332 2.476-22.304-2.013c-4.972-4.489 3.322-15.64 3.322-15.64l11.796-5.678 7.186 23.331zM51.472 313.017l.905 15.822-23.43 2.033-.826-15.822 23.35-2.033zm34.241-6.643l-2.376 14.715-23.25-3.543 2.436-14.714 23.19 3.542z" fill="#F5C2A2"/><path d="M89.336 324.592s5.515-16.104 0-15.077c-5.516 1.026-10.83 6.522-10.83 6.522s-18.117-6.2-20.13-6.563c-2.013-.362-6.039 20.311-6.039 20.311l23.834 20.13s42.091 2.516 44.285 0c2.195-2.516-5.837-15.017-13.406-16.104l-7.549-1.026-10.165-8.193z" fill="#9E5943"/><path d="M79.815 148.638s20.13 44.869 24.578 64.677c3.241 14.413-4.388 94.71-7.388 95.072-2.999.363-35.67 0-35.67 0l-1.77 7.791H21.196s-1.007-43.682 0-76.493c1.006-32.812 4.469-88.47 4.469-88.47l22.646-8.837 31.503 6.26z" fill="#FF9561"/><path d="M62.523 303.335a.496.496 0 01-.374-.182.51.51 0 01-.11-.402c9.643-60.912 7.811-123.335 7.79-123.959a.523.523 0 01.343-.483l12.581-4.328a.503.503 0 01.644.302.523.523 0 01-.322.644l-12.219 4.228c.141 5.274 1.45 65.22-7.83 123.777a.523.523 0 01-.503.403z" fill="#141414"/><path d="M58.819 325.176s-1.55-8.233-5.596-8.636c-4.046-.403-9.823 8.636-9.823 8.636s-15.782-1.188-16.89 0c-1.106 1.187-1.127 27.034 0 27.436 1.128.403 66.55.383 69.529 0 2.979-.382-1.288-13.728-7.146-16.103a37.727 37.727 0 00-12.078-2.356l-17.996-8.977z" fill="#B56A4D"/><path d="M76.714 334.677l-6.964-.141a.468.468 0 01-.483-.503.526.526 0 01.503-.504l6.944.141a.526.526 0 01.504.524.522.522 0 01-.504.483zm22.908-1.248l-7.85-1.128a.5.5 0 01-.23-.896.524.524 0 01.37-.11l7.77 1.127a.5.5 0 01.356.148.5.5 0 010 .711.5.5 0 01-.356.148h-.06z" fill="#fff"/><path d="M81.747 154.013s-1.369-47.849-11.172-71.34c-8.757-20.955-43.903-13.024-46.922-5.214-3.02 7.81 0 79.895 0 79.895s38.87 5.576 58.094-3.341z" fill="#5FCF86"/><path d="M55.216 62.261v.322l-.222 6.14-.14 4.81s.382 1.108-4.852.786c-7.025-.463-9.3-3.664-9.3-3.664l-.443-11.293 2.114.423 12.843 2.476z" fill="#F5C2A2"/><path d="M55.055 63.71l-.201 5.556c-3.14-.382-8.837-1.771-11.172-6.944a4.483 4.483 0 01-.343-1.108l11.696 2.416.02.08z" fill="#000"/><path d="M56.927 37.14s6.039 14.412 4.026 22.545c-2.013 8.132-9.119 6.884-13.326 5.354a13.871 13.871 0 01-6.18-4.247 5.717 5.717 0 01-6.602-2.416c-2.658-3.824-1.067-8.253 1.167-9.28a5.878 5.878 0 014.892.645l-2.013-4.167s8.555-21.418 18.036-8.435z" fill="#F5C2A2"/><path d="M56.363 55.538a.503.503 0 01-.342-.624 7.589 7.589 0 00-1.127-5.536.508.508 0 11.845-.563 8.616 8.616 0 011.248 6.38.502.502 0 01-.624.343zM40.26 56.605a.544.544 0 01-.383-.161l-3.644-4.107a.504.504 0 01.745-.664l3.724 4.147a.504.504 0 01-.362.845l-.08-.06z" fill="#000"/><path d="M36.394 55.498a.523.523 0 01-.503-.423.502.502 0 01.423-.584l2.577-.402a.482.482 0 01.563.402.484.484 0 01-.403.584l-2.576.402-.08.02zm21.378-5.978a.483.483 0 01-.483-.444l-.382-2.677a.503.503 0 01.796-.474.484.484 0 01.19.333l.483 2.677a.523.523 0 01-.422.584h-.182zm-7.569.643a.524.524 0 01-.503-.443l-.322-2.697a.501.501 0 01.443-.564.482.482 0 01.543.443l.343 2.698a.503.503 0 01-.443.543l-.06.02zm-8.817-2.597v4.369l-3.703-3.805 3.703-.564zM58.658 43.4l-2.778-.242a.503.503 0 01-.463-.543.523.523 0 01.544-.463l2.737.241a.503.503 0 110 1.007h-.04zm-10.346.885a.503.503 0 01-.504-.402.502.502 0 01.403-.584l2.697-.483a.484.484 0 01.584.402.504.504 0 01-.403.584l-2.777.483zm3.502 15.863a1.73 1.73 0 01-.926-.282 4.569 4.569 0 01-1.51-2.919.683.683 0 01.242-.544c.201-.16.704-.543 4.992 1.188a.524.524 0 01.302.342.523.523 0 010 .423 5.435 5.435 0 01-2.536 1.731 2.012 2.012 0 01-.564.06zm-1.349-2.859c.14.666.485 1.271.987 1.731a.605.605 0 00.543.101 4.187 4.187 0 001.53-.866 19.094 19.094 0 00-3.06-.966z" fill="#000"/><path d="M40.581 50.727a1.792 1.792 0 002.557-.705c1.067-1.69-1.288-6.642-1.288-6.642 2.382.552 4.874.39 7.166-.463a10.91 10.91 0 004.026-5.476s2.013 4.187 8.051 2.335c6.04-1.852 7.187-10.065.725-11.735-6.461-1.671-9.964 1.167-9.964 1.167s-.805-6.039-8.777-3.02c-7.266 2.698-8.494 11.777-8.494 11.777a5.757 5.757 0 00-5.194 4.952c-.785 4.75 4.831 8.172 4.831 8.172a7.59 7.59 0 016.361-.362z" fill="#000"/><path d="M52.66 75.225c-3.866 0-9.2-.725-12.34-4.248a.503.503 0 010-.704.524.524 0 01.724 0c4.831 5.455 16.104 3.583 16.104 3.563a.483.483 0 01.564.423.503.503 0 01-.403.583 32.587 32.587 0 01-4.65.383z" fill="#FFB255"/><path d="M55.055 304.522h-34.22a.504.504 0 010-1.006h34.22a.505.505 0 01.356.859.505.505 0 01-.356.147zm44.003-6.602h-35.69a.505.505 0 010-1.007h35.69a.501.501 0 01.504.504.505.505 0 01-.504.503z" fill="#141414"/><path d="M132.715 85.33a54.363 54.363 0 019.179-8.213c3.885-2.355 11.716 1.43 11.716 4.026 0 2.597-8.757 1.812-8.757 1.812s-3.462 12.62-12.077 12.62c-8.616 0-.061-10.245-.061-10.245z" fill="#F5C2A2"/><path d="M133.037 96.16a12.516 12.516 0 01-2.013-.181.5.5 0 01-.334-.203.492.492 0 01-.088-.381.499.499 0 01.583-.403c8.455 1.47 11.293-7.065 11.414-7.428a.475.475 0 01.243-.295.48.48 0 01.381-.027.502.502 0 01.342.624s-2.798 8.294-10.528 8.294z" fill="#000"/><path d="M137.003 105.379s-24.115 25.847-57.672 17.412c-33.556-8.434-18.298-50.324-18.298-50.324s18.298 10.186 30.94 12.38c12.641 2.194 36.233.362 36.233.362l8.797 20.17z" fill="#5FCF86"/><path d="M79.331 123.335a.527.527 0 01-.503-.423l-1.751-12.782a.502.502 0 01.422-.564.483.483 0 01.564.443l1.771 12.782a.505.505 0 01-.442.564l-.06-.02z" fill="#141414"/><path d="M79.332 128.508a1.003 1.003 0 01-.725-.282 1.006 1.006 0 010-1.429l13.547-13.346a1.028 1.028 0 011.369 0l4.408 4.026a.997.997 0 01.296.705.987.987 0 01-.296.704 1.008 1.008 0 01-1.429 0l-3.603-3.341-12.863 12.681a.955.955 0 01-.704.282z" fill="#C6BCCC"/><path d="M94.066 97.186h-.16a1.469 1.469 0 01-1.209-.765c-1.389-2.355 2.154-10.387 2.577-11.292a.463.463 0 01.523-.302.503.503 0 01.423.442c.12.947 1.067 9.32-.946 11.394a1.692 1.692 0 01-1.208.523zm1.349-9.823c-1.288 3.22-2.536 7.347-1.852 8.555a.503.503 0 00.423.262.624.624 0 00.563-.222c1.128-1.167 1.087-5.596.866-8.595z" fill="#141414"/><path d="M64.536 125.489s13.044-3.543 14.695-3.06c1.303.44 2.563 1 3.764 1.671 0 0 7.71 2.536 6.623 4.891a6.323 6.323 0 01-3.241 3.161s1.328 15.439-3.926 17.07c-5.253 1.63-16.667-3.523-20.753-9.582-4.087-6.059-7.348-13.044 2.838-14.151z" fill="#F5C2A2"/><path d="M66.227 150.027s-54.592 13.527-64.395-19.888C-8.253 95.656 26.47 74.48 26.47 74.48L65.1 121l1.127 29.027z" fill="#5FCF86"/><path d="M49.197 122.791c-.262 0-17.271-3.402-26.169-2.415a.49.49 0 01-.49-.256.482.482 0 01-.053-.187.508.508 0 01.104-.375.5.5 0 01.339-.189c9.038-.986 25.665 2.295 26.37 2.436a.503.503 0 010 .986h-.1z" fill="#141414"/><path d="M36.093 120.778h-.202c-4.327-1.831-11.594-5.193-11.433-7.045 0-.322.241-.765 1.087-.966 4.307-.987 10.669 6.904 10.93 7.226a.526.526 0 010 .624.56.56 0 01-.382.161zm-9.743-7.126a2.655 2.655 0 00-.564 0c-.282 0-.342.121-.342.141.12.725 4.328 3.04 8.797 5.053-2.033-2.094-5.476-5.173-7.891-5.173v-.021z" fill="#141414"/><path d="M81.747 125.006h-6.804a.501.501 0 01-.503-.504.506.506 0 01.503-.503h6.804a.505.505 0 010 1.007z" fill="#000"/><path d="M208.02 348.244l-56.745 4.026a6.38 6.38 0 01-6.341-6.482V6.381A6.382 6.382 0 01151.275 0l56.745 4.026a6.402 6.402 0 016.402 6.381v331.355a6.413 6.413 0 01-1.846 4.579 6.395 6.395 0 01-4.556 1.903z" fill="#CCC5D1"/><path d="M166.433 182.456a5.073 5.073 0 01-5.073-5.073v-32.691a5.075 5.075 0 011.678-3.168 5.075 5.075 0 018.387 3.168v32.691a5.073 5.073 0 01-4.992 5.073z" fill="#EAE6ED"/><path d="M160.313 345.829a6.898 6.898 0 01-6.965-6.885V13.225a6.884 6.884 0 016.885-6.884l53.947 4.026a1.004 1.004 0 01.926 1.006v329.423a.984.984 0 01-.926 1.007l-53.867 4.026zm-.161-337.475a4.849 4.849 0 00-4.791 4.871v325.719a4.871 4.871 0 004.872 4.872l52.86-4.026V12.3l-52.941-3.946z" fill="#D8D5DB"/><path d="M166.433 169.694a8.656 8.656 0 008.655-8.656 8.655 8.655 0 10-17.311 0 8.656 8.656 0 008.656 8.656z" fill="#B1A7B7"/><path d="M214.06 61.154a3.222 3.222 0 01-3.201-3.22v-29.39a3.201 3.201 0 116.401 0v29.39a3.22 3.22 0 01-3.2 3.22zm.362 262.25a3.2 3.2 0 01-3.201-3.2v-29.39a3.197 3.197 0 013.201-3.2 3.2 3.2 0 013.2 3.2v29.39a3.202 3.202 0 01-3.2 3.2z" fill="#fff"/><path d="M179.376 344.399a1.01 1.01 0 01-.712-.294 1.01 1.01 0 01-.294-.712V8.777a1.009 1.009 0 011.006-1.007 1.008 1.008 0 011.007 1.007v334.616a1.007 1.007 0 01-1.007 1.006zm12.38-.925a1.01 1.01 0 01-.712-.295 1.01 1.01 0 01-.294-.712V9.703a1.009 1.009 0 011.006-1.007 1.007 1.007 0 011.006 1.007v332.764c0 .267-.106.523-.294.712a1.01 1.01 0 01-.712.295zm11.917-1.671a1.007 1.007 0 01-1.007-1.007V12.319a1.006 1.006 0 112.013 0v328.477a1.007 1.007 0 01-1.006 1.007z" fill="#D8D5DB"/><path d="M92.879 120.013a.981.981 0 01-.745-.322l-2.315-2.556a1.007 1.007 0 111.49-1.349l2.314 2.557a.986.986 0 010 1.409.92.92 0 01-.745.261z" fill="#C6BCCC"/><path d="M168.445 174.464a2.017 2.017 0 01-1.242 1.86 2.022 2.022 0 01-1.163.115 2.02 2.02 0 01-1.582-1.582 2.007 2.007 0 01.856-2.066 2.006 2.006 0 012.542.25c.377.377.589.889.589 1.423z" fill="#998EA0"/><path d="M166.432 174.464l-1.469 4.711h3.482l-2.013-4.711z" fill="#998EA0"/></g><defs><clipPath id="clip0_6071_141465"><path fill="#fff" d="M0 0h360v352.914H0z"/></clipPath></defs></svg>